<svg xmlns="http://www.w3.org/2000/svg" width="1400" height="360" viewBox="0 0 1400 360">
  <defs>
    <linearGradient id="g" x1="0" y1="0" x2="1" y2="1">
      <stop offset="0%" stop-color="#0d1117"/>
      <stop offset="55%" stop-color="#111827"/>
      <stop offset="100%" stop-color="#0b3a53"/>
    </linearGradient>
    <filter id="glow">
      <feGaussianBlur stdDeviation="8" result="b"/>
      <feMerge><feMergeNode in="b"/><feMergeNode in="SourceGraphic"/></feMerge>
    </filter>
  </defs>
  <rect width="1400" height="360" rx="24" fill="url(#g)"/>
  <circle cx="1180" cy="120" r="150" fill="#00a9e0" opacity=".08"/>
  <circle cx="1240" cy="250" r="210" fill="#2563eb" opacity=".06"/>
  <g opacity=".14" stroke="#38bdf8">
    <path d="M0 290 H1400"/><path d="M0 250 H1400"/><path d="M0 210 H1400"/>
    <path d="M900 0 V360"/><path d="M980 0 V360"/><path d="M1060 0 V360"/><path d="M1140 0 V360"/>
  </g>
  <g transform="translate(90,72)">
    <rect width="132" height="132" rx="28" fill="#00a9e0" opacity=".14" stroke="#38bdf8" stroke-width="2"/>
    <path d="M66 24 L103 39 V66 C103 91 88 109 66 120 C44 109 29 91 29 66 V39 Z"
          fill="none" stroke="#7dd3fc" stroke-width="6" filter="url(#glow)"/>
    <path d="M48 69 L61 82 L87 54" fill="none" stroke="#7dd3fc" stroke-width="7" stroke-linecap="round" stroke-linejoin="round"/>
  </g>
  <text x="260" y="115" font-family="Segoe UI, Arial, sans-serif" font-size="48" font-weight="700" fill="#f8fafc">WAZUH SOC / BLUE TEAM LAB</text>
  <text x="262" y="165" font-family="Segoe UI, Arial, sans-serif" font-size="24" fill="#cbd5e1">Detecção • Triagem • Investigação • Correlação</text>
  <text x="262" y="218" font-family="Segoe UI, Arial, sans-serif" font-size="20" fill="#94a3b8">20 laboratórios documentados em ambiente Windows monitorado por Wazuh</text>
  <g transform="translate(262,258)">
    <rect width="130" height="38" rx="19" fill="#0f2f43" stroke="#38bdf8"/>
    <text x="65" y="25" text-anchor="middle" font-family="Segoe UI, Arial, sans-serif" font-size="16" font-weight="600" fill="#bae6fd">SIEM</text>
    <rect x="146" width="155" height="38" rx="19" fill="#0f2f43" stroke="#38bdf8"/>
    <text x="223" y="25" text-anchor="middle" font-family="Segoe UI, Arial, sans-serif" font-size="16" font-weight="600" fill="#bae6fd">MITRE ATT&amp;CK</text>
    <rect x="317" width="145" height="38" rx="19" fill="#0f2f43" stroke="#38bdf8"/>
    <text x="389" y="25" text-anchor="middle" font-family="Segoe UI, Arial, sans-serif" font-size="16" font-weight="600" fill="#bae6fd">WINDOWS</text>
    <rect x="478" width="170" height="38" rx="19" fill="#0f2f43" stroke="#38bdf8"/>
    <text x="563" y="25" text-anchor="middle" font-family="Segoe UI, Arial, sans-serif" font-size="16" font-weight="600" fill="#bae6fd">DETECTION</text>
  </g>
</svg>